<svg width="17" height="14" viewBox="0 0 17 14" fill="none" xmlns="http://www.w3.org/2000/svg">
<rect x="2.5" y="5.5" width="12" height="8" fill="#D9D9D9" stroke="black"/>
<rect y="2" width="17" height="4" fill="#9f5448"/>
<rect x="4" width="2" height="3" fill="#D9D9D9"/>
<rect x="11" width="2" height="3" fill="#D9D9D9"/>
<rect x="4" y="7" width="1" height="1" fill="black"/>
<rect x="6" y="11" width="1" height="1" fill="black"/>
<rect x="12" y="11" width="1" height="1" fill="black"/>
<rect x="10" y="11" width="1" height="1" fill="black"/>
<rect x="8" y="11" width="1" height="1" fill="black"/>
<rect x="4" y="11" width="1" height="1" fill="black"/>
<rect x="12" y="9" width="1" height="1" fill="black"/>
<rect x="10" y="9" width="1" height="1" fill="black"/>
<rect x="8" y="9" width="1" height="1" fill="black"/>
<rect x="6" y="9" width="1" height="1" fill="black"/>
<rect x="4" y="9" width="1" height="1" fill="black"/>
<rect x="12" y="7" width="1" height="1" fill="black"/>
<rect x="10" y="7" width="1" height="1" fill="black"/>
<rect x="8" y="7" width="1" height="1" fill="black"/>
<rect x="6" y="7" width="1" height="1" fill="black"/>
</svg>
